<svg width="52" height="39" viewBox="0 0 52 39" fill="none" xmlns="http://www.w3.org/2000/svg">
<path d="M26 39C24.894 38.9944 23.803 38.7427 22.8064 38.263C21.8097 37.7833 20.9323 37.0877 20.2378 36.2267L1.99801 14.1267C0.932187 12.7962 0.261482 11.193 0.0623226 9.49983C-0.136837 7.80664 0.143558 6.09155 0.871557 4.55C1.46199 3.21025 2.42551 2.06879 3.64703 1.26196C4.86856 0.455138 6.29647 0.0170432 7.76022 0H44.2398C45.7035 0.0170432 47.1314 0.455138 48.353 1.26196C49.5745 2.06879 50.538 3.21025 51.1284 4.55C51.8564 6.09155 52.1368 7.80664 51.9377 9.49983C51.7385 11.193 51.0678 12.7962 50.002 14.1267L31.7622 36.2267C31.0677 37.0877 30.1903 37.7833 29.1936 38.263C28.197 38.7427 27.106 38.9944 26 39ZM9.05997 8.66667L26 29.5533L43.33 8.66667H9.05997Z" fill="white"/>
</svg>
